<?xml version="1.0" encoding="utf-8"?>
<!-- Generator: Adobe Illustrator 25.2.0, SVG Export Plug-In . SVG Version: 6.00 Build 0)  -->
<svg version="1.1" id="Capa_1" xmlns="http://www.w3.org/2000/svg" xmlns:xlink="http://www.w3.org/1999/xlink" x="0px" y="0px"
	 viewBox="0 0 1080 1920" style="enable-background:new 0 0 1080 1920;" xml:space="preserve">
<style type="text/css">
	.st0{fill-rule:evenodd;clip-rule:evenodd;fill:#C82E2C;}
	.st1{fill-rule:evenodd;clip-rule:evenodd;fill:#FFFFFF;}
	.st2{fill-rule:evenodd;clip-rule:evenodd;fill:#004A6B;}
	.st3{fill-rule:evenodd;clip-rule:evenodd;fill:#EE7408;}
	.st4{fill:#004A6B;}
	.st5{fill:#C82E2C;}
</style>
<g>
	<path class="st0" d="M347.37,542.97c-7.7,0-15.01,1.8-21.62,5c-6.61-3.2-13.92-5-21.62-5c-29.39,0-53.22,25.92-53.22,57.89
		c0,31.97,23.83,79.35,53.22,79.35c7.7,0,15.01-3.25,21.62-8.63c6.61,5.37,13.92,8.63,21.62,8.63c29.39,0,53.22-47.39,53.22-79.35
		C400.59,568.88,376.76,542.97,347.37,542.97z"/>
	<path class="st1" d="M301.64,560.5c-16.32,3.1-27.27,13.65-31.06,31.38c-0.77,6.45-8.11,6.38-7.78,0
		c3.57-22.99,17.51-35.78,38.84-37.93C306.09,553.42,306.99,559.42,301.64,560.5z"/>
	<path class="st2" d="M321.15,532.47c2.43-6.38,2.26-13.72-1.08-20.28c-3.34-6.56-9.17-11.02-15.76-12.81
		c-2.43,6.38-2.26,13.72,1.08,20.28C308.73,526.22,314.56,530.67,321.15,532.47L321.15,532.47z M363.25,529.82
		c10.35-8.7,15.91-20.98,16.38-33.5c-12.42-1.7-25.48,1.66-35.83,10.35c-10.35,8.69-15.9,20.98-16.37,33.5
		C339.84,541.87,352.91,538.52,363.25,529.82z"/>
	<path class="st3" d="M183.33,472.07h93.05c4.45,0,8.1,3.64,8.1,8.1v44.08c0,4.45-3.65,8.1-8.1,8.1h-1.25l0.04,11.37l-16.86-11.37
		h-74.98c-4.45,0-8.1-3.64-8.1-8.1v-44.08C175.23,475.71,178.88,472.07,183.33,472.07z"/>
</g>
<path class="st4" d="M504.98,583.15v-86.52h-20.93l-19.47,38.15l-19.47-38.15h-20.93v86.52h21.29v-41.43l12.29,21.38h13.63
	l12.29-21.38v41.43H504.98L504.98,583.15z M573.31,556.87v-8.88c0-4.32-0.65-8.36-1.93-12.09c-1.3-3.73-3.18-7.04-5.68-9.86
	c-2.49-2.84-5.58-5.05-9.23-6.65c-3.67-1.6-7.87-2.41-12.61-2.43c-4.3,0-8.25,0.75-11.82,2.21c-3.57,1.48-6.65,3.63-9.27,6.49
	c-2.62,2.86-4.64,6.35-6.06,10.51c-1.42,4.14-2.15,8.9-2.17,14.26c0.02,5.62,0.65,10.4,1.85,14.32c1.22,3.93,2.86,7.14,4.95,9.65
	c2.09,2.51,4.46,4.46,7.14,5.84c2.66,1.38,5.48,2.33,8.42,2.88c2.94,0.53,5.88,0.79,8.8,0.77c3.02,0,5.74-0.22,8.17-0.67
	c2.41-0.45,4.6-1.12,6.59-1.99c1.99-0.87,3.85-1.97,5.58-3.24c1.74-1.28,3.43-2.76,5.09-4.44l-11.93-11.92
	c-1.16,1.18-2.33,2.17-3.53,2.98c-1.2,0.81-2.6,1.44-4.18,1.87c-1.58,0.41-3.51,0.63-5.8,0.63c-2.47-0.02-4.58-0.51-6.29-1.46
	c-1.72-0.95-3.04-2.19-3.93-3.73c-0.89-1.54-1.34-3.22-1.34-5.03H573.31L573.31,556.87z M553.59,543.61h-19.47
	c0-0.79,0.06-1.64,0.22-2.51c0.16-0.87,0.45-1.74,0.87-2.6c0.41-0.95,0.97-1.8,1.72-2.58c0.75-0.77,1.7-1.38,2.84-1.83
	c1.14-0.47,2.49-0.71,4.08-0.71c1.58,0,2.94,0.24,4.08,0.71c1.14,0.45,2.09,1.05,2.84,1.83c0.75,0.77,1.32,1.62,1.72,2.58
	c0.43,0.85,0.71,1.72,0.87,2.6C553.53,541.96,553.59,542.81,553.59,543.61L553.59,543.61z M613.4,583.15v-16.79h-6.33
	c-1.34,0-2.35-0.36-3.02-1.05c-0.67-0.69-0.99-1.68-0.99-2.96v-26.77h10.34v-15.33h-10.34V501.5H583.1v18.74h-5.96v15.33h5.96v28.23
	c0,2.29,0.36,4.56,1.14,6.81c0.77,2.27,1.97,4.34,3.59,6.23c1.64,1.89,3.73,3.41,6.31,4.54c2.58,1.16,5.68,1.72,9.29,1.76H613.4
	L613.4,583.15z M672.83,583.15v-42.47c-0.02-7.97-2.49-13.91-7.38-17.85c-4.91-3.93-12.05-5.88-21.46-5.88
	c-2.76,0-5.23,0.14-7.46,0.43c-2.21,0.28-4.24,0.77-6.1,1.44c-1.85,0.67-3.61,1.58-5.29,2.7c-1.66,1.14-3.33,2.54-4.99,4.2
	l12.41,12.41c1.03-1.05,2.03-1.91,2.98-2.53c0.95-0.65,2.03-1.12,3.2-1.42c1.18-0.28,2.6-0.43,4.28-0.43
	c3.45-0.04,5.96,0.57,7.52,1.85c1.58,1.26,2.35,3.37,2.33,6.31v1.7h-13.26c-3.89,0.02-7.24,0.55-10.04,1.58
	c-2.82,1.03-5.13,2.43-6.94,4.22c-1.8,1.76-3.14,3.79-4,6.06c-0.87,2.25-1.3,4.62-1.3,7.12c0,3.06,0.49,5.9,1.44,8.54
	c0.97,2.62,2.39,4.89,4.28,6.79c1.85,1.85,4.1,3.27,6.75,4.28c2.66,1.03,5.64,1.54,8.94,1.56c2.29,0,4.28-0.22,5.98-0.65
	c1.68-0.45,3.22-1.09,4.58-1.99c1.38-0.87,2.72-1.99,4.04-3.33v5.35H672.83L672.83,583.15z M652.88,558.57
	c0.02,1.58-0.12,2.9-0.43,3.97c-0.28,1.07-0.79,1.93-1.52,2.6c-0.71,0.69-1.44,1.2-2.15,1.54c-0.73,0.37-1.54,0.61-2.45,0.73
	c-0.91,0.12-2.03,0.16-3.31,0.16c-1.46-0.02-2.68-0.26-3.65-0.77c-0.97-0.51-1.7-1.16-2.19-1.99c-0.49-0.83-0.73-1.72-0.73-2.72
	c0.02-1.54,0.59-2.8,1.7-3.75c1.12-0.95,2.66-1.46,4.62-1.48h10.1V558.57z"/>
<path class="st5" d="M485.59,636.54c0.02-3.14,0.02-6.27-0.04-9.37c-0.08-3.1-0.34-6.14-0.83-9.11c-0.47-2.96-1.34-5.78-2.58-8.5
	c-1.22-2.7-3-5.23-5.31-7.59c-2.76-2.74-6.04-4.79-9.88-6.13c-3.81-1.36-7.99-2.03-12.51-2.03h-30.42v86.64h30.42
	c4.52,0,8.7-0.67,12.51-2.03c3.83-1.34,7.12-3.39,9.88-6.13c2.31-2.35,4.1-4.95,5.31-7.79c1.24-2.82,2.11-5.8,2.58-8.92
	c0.49-3.1,0.75-6.29,0.83-9.51C485.61,642.87,485.61,639.68,485.59,636.54L485.59,636.54z M472.44,636.54
	c0.02,3.97-0.04,7.65-0.2,11.01c-0.14,3.35-0.57,6.31-1.22,8.88c-0.67,2.6-1.72,4.7-3.2,6.39c-1.82,2.01-3.95,3.47-6.41,4.42
	c-2.43,0.95-5.21,1.42-8.31,1.42h-15.94v-63.03h15.94c3.1-0.02,5.88,0.47,8.31,1.42c2.45,0.93,4.58,2.41,6.41,4.42
	c1.48,1.66,2.53,3.67,3.2,6.06c0.65,2.39,1.07,5.15,1.22,8.31C472.4,628.99,472.46,632.56,472.44,636.54L472.44,636.54z
	 M543.43,649.56c0.02-3.45-0.18-6.61-0.59-9.53c-0.43-2.9-1.16-5.58-2.23-8.01c-1.05-2.43-2.55-4.64-4.48-6.67
	c-1.34-1.4-2.9-2.64-4.71-3.73c-1.8-1.09-3.85-1.97-6.14-2.6c-2.31-0.63-4.85-0.95-7.65-0.97c-2.8,0.02-5.33,0.34-7.61,0.97
	c-2.27,0.63-4.3,1.5-6.08,2.6c-1.78,1.09-3.35,2.33-4.69,3.73c-1.93,2.03-3.43,4.24-4.48,6.67c-1.07,2.43-1.8,5.11-2.23,8.01
	c-0.41,2.92-0.61,6.08-0.59,9.53c-0.02,3.49,0.18,6.69,0.59,9.61c0.43,2.92,1.16,5.6,2.23,8.03c1.05,2.43,2.55,4.66,4.48,6.69
	c1.34,1.4,2.9,2.64,4.69,3.73c1.78,1.09,3.81,1.97,6.08,2.6c2.27,0.63,4.81,0.95,7.61,0.97c2.8-0.02,5.33-0.34,7.65-0.97
	c2.29-0.63,4.34-1.5,6.14-2.6c1.8-1.1,3.37-2.33,4.71-3.73c1.93-2.03,3.43-4.26,4.48-6.69c1.07-2.43,1.8-5.11,2.23-8.03
	C543.25,656.25,543.45,653.05,543.43,649.56L543.43,649.56z M531.02,649.56c0.02,2.25-0.06,4.42-0.26,6.53
	c-0.2,2.09-0.61,4.04-1.22,5.8c-0.61,1.78-1.54,3.31-2.78,4.58c-1.16,1.16-2.51,2.07-4.06,2.7c-1.54,0.63-3.24,0.95-5.07,0.95
	c-1.82,0-3.49-0.32-5.01-0.95c-1.5-0.63-2.84-1.54-3.99-2.7c-1.24-1.28-2.17-2.8-2.78-4.58c-0.61-1.76-1.01-3.71-1.22-5.8
	c-0.2-2.11-0.28-4.28-0.26-6.53c-0.02-2.25,0.06-4.42,0.26-6.53c0.2-2.09,0.61-4.04,1.22-5.82c0.61-1.76,1.54-3.29,2.78-4.56
	c1.16-1.16,2.49-2.05,3.99-2.64c1.52-0.59,3.18-0.89,5.01-0.89c1.82,0,3.53,0.3,5.07,0.89c1.54,0.59,2.9,1.48,4.06,2.64
	c1.24,1.28,2.17,2.8,2.78,4.56c0.61,1.78,1.01,3.73,1.22,5.82C530.96,645.14,531.04,647.31,531.02,649.56L531.02,649.56z
	 M596.17,672.43l-8.52-8.15c-1.28,1.42-2.51,2.55-3.71,3.41c-1.2,0.85-2.43,1.48-3.73,1.87c-1.3,0.39-2.76,0.57-4.36,0.57
	c-2.39,0-4.54-0.49-6.49-1.42c-1.95-0.93-3.59-2.29-4.95-4.06c-1.32-1.66-2.27-3.71-2.84-6.13c-0.55-2.41-0.83-5.41-0.81-8.96
	c0-2.39,0.12-4.48,0.34-6.31c0.24-1.85,0.63-3.45,1.18-4.87c0.53-1.4,1.24-2.68,2.13-3.79c1.36-1.76,3-3.12,4.95-4.06
	c1.95-0.95,4.1-1.42,6.49-1.42c1.6,0,3.06,0.18,4.36,0.57c1.3,0.39,2.54,1.01,3.73,1.87c1.2,0.85,2.43,1.99,3.71,3.41l8.52-8.27
	c-1.93-2.07-3.91-3.73-5.96-5.01c-2.07-1.26-4.26-2.19-6.61-2.78c-2.33-0.57-4.93-0.85-7.75-0.85c-2.8,0-5.52,0.34-8.19,1.05
	c-2.66,0.71-5.15,1.85-7.48,3.39c-2.31,1.52-4.36,3.53-6.15,5.98c-1.76,2.48-3.14,5.46-4.16,8.94c-0.99,3.49-1.5,7.52-1.52,12.15
	c0.02,4.62,0.53,8.68,1.52,12.17c1.01,3.49,2.39,6.49,4.16,8.96c1.78,2.47,3.83,4.48,6.15,6.02c2.33,1.56,4.83,2.7,7.48,3.41
	c2.68,0.73,5.4,1.07,8.19,1.07c2.82,0,5.42-0.28,7.75-0.89c2.35-0.61,4.54-1.54,6.61-2.84C592.25,676.17,594.24,674.5,596.17,672.43
	L596.17,672.43z M648.78,653.21v-5.48c0-4.4-0.59-8.42-1.76-12.03c-1.16-3.63-2.86-6.75-5.11-9.39c-2.25-2.64-4.99-4.66-8.21-6.1
	c-3.24-1.42-6.94-2.15-11.07-2.17c-5.31,0.02-9.92,1.26-13.81,3.73c-3.91,2.47-6.94,6.06-9.09,10.75
	c-2.15,4.68-3.22,10.36-3.26,17.03c0.02,5.86,0.75,10.81,2.17,14.85c1.42,4.06,3.39,7.32,5.9,9.77c2.54,2.47,5.48,4.26,8.82,5.37
	c3.35,1.12,6.96,1.66,10.85,1.64c3.57,0,6.71-0.37,9.41-1.1c2.68-0.71,5.11-1.78,7.3-3.2c2.19-1.44,4.34-3.21,6.41-5.31l-7.91-7.42
	c-1.44,1.46-2.86,2.66-4.28,3.59c-1.42,0.93-3,1.62-4.7,2.07c-1.7,0.45-3.69,0.67-5.98,0.67c-3.37-0.02-6.23-0.73-8.56-2.13
	c-2.33-1.4-4.1-3.39-5.31-5.96c-1.22-2.58-1.82-5.64-1.82-9.19H648.78L648.78,653.21z M636.49,644.57h-27.74
	c0.04-1.24,0.1-2.31,0.2-3.23c0.08-0.91,0.24-1.78,0.45-2.6c0.22-0.79,0.53-1.66,0.93-2.58c0.65-1.56,1.58-2.92,2.76-4.08
	c1.18-1.16,2.58-2.07,4.18-2.72c1.62-0.65,3.41-0.99,5.35-0.99c1.95,0,3.73,0.34,5.31,0.99c1.6,0.65,2.98,1.56,4.14,2.72
	c1.16,1.16,2.07,2.51,2.72,4.08c0.41,0.91,0.71,1.78,0.95,2.58c0.24,0.81,0.41,1.68,0.53,2.6
	C636.37,642.26,636.45,643.33,636.49,644.57L636.49,644.57z M706.5,680.47v-39.43c0.02-2.31-0.18-4.5-0.55-6.57
	c-0.39-2.07-1.03-4-1.95-5.8c-0.89-1.8-2.13-3.49-3.71-5.03c-1.83-1.78-4.04-3.14-6.59-4.12c-2.58-0.97-5.43-1.46-8.62-1.48
	c-3.12,0-6.1,0.57-8.94,1.72c-2.82,1.16-5.33,2.9-7.48,5.21v-6.21h-12.17v61.69h12.41v-37.6c0.02-3.16,0.63-5.76,1.76-7.79
	c1.16-2.03,2.7-3.53,4.62-4.5c1.91-0.99,4.06-1.46,6.39-1.46c2.33-0.02,4.44,0.47,6.31,1.42c1.87,0.97,3.35,2.45,4.42,4.48
	c1.09,2.03,1.66,4.64,1.68,7.85v37.6H706.5L706.5,680.47z M761.55,672.43l-8.52-8.15c-1.28,1.42-2.51,2.55-3.71,3.41
	c-1.2,0.85-2.43,1.48-3.73,1.87c-1.3,0.39-2.76,0.57-4.36,0.57c-2.39,0-4.54-0.49-6.49-1.42c-1.95-0.93-3.59-2.29-4.95-4.06
	c-1.32-1.66-2.27-3.71-2.84-6.13c-0.55-2.41-0.83-5.41-0.81-8.96c0-2.39,0.12-4.48,0.34-6.31c0.24-1.85,0.63-3.45,1.18-4.87
	c0.53-1.4,1.24-2.68,2.13-3.79c1.36-1.76,3-3.12,4.95-4.06c1.95-0.95,4.1-1.42,6.49-1.42c1.6,0,3.06,0.18,4.36,0.57
	c1.3,0.39,2.54,1.01,3.73,1.87c1.2,0.85,2.43,1.99,3.71,3.41l8.52-8.27c-1.93-2.07-3.91-3.73-5.96-5.01
	c-2.07-1.26-4.26-2.19-6.61-2.78c-2.33-0.57-4.93-0.85-7.75-0.85c-2.8,0-5.52,0.34-8.19,1.05c-2.66,0.71-5.15,1.85-7.48,3.39
	c-2.31,1.52-4.36,3.53-6.15,5.98c-1.76,2.48-3.14,5.46-4.16,8.94c-0.99,3.49-1.5,7.52-1.52,12.15c0.02,4.62,0.53,8.68,1.52,12.17
	c1.01,3.49,2.39,6.49,4.16,8.96c1.78,2.47,3.83,4.48,6.15,6.02c2.33,1.56,4.83,2.7,7.48,3.41c2.68,0.73,5.39,1.07,8.19,1.07
	c2.82,0,5.42-0.28,7.75-0.89c2.35-0.61,4.54-1.54,6.61-2.84C757.64,676.17,759.63,674.5,761.55,672.43L761.55,672.43z
	 M779.61,680.47v-61.69H767.2v61.69H779.61L779.61,680.47z M779.97,606.61v-13.14h-13.14v13.14H779.97L779.97,606.61z
	 M835.99,680.47v-41.25c0-7-2.13-12.29-6.37-15.84c-4.26-3.55-10.61-5.33-19.06-5.33c-3.39-0.02-6.39,0.24-8.98,0.79
	c-2.62,0.55-4.97,1.46-7.1,2.76c-2.11,1.3-4.14,3.08-6.06,5.33l8.15,7.67c1.12-1.46,2.27-2.62,3.51-3.49
	c1.22-0.89,2.62-1.52,4.22-1.91c1.6-0.39,3.53-0.59,5.78-0.57c3.2,0,5.78,0.43,7.77,1.26c2.01,0.85,3.45,2.13,4.38,3.83
	c0.91,1.72,1.38,3.87,1.36,6.47v4.38h-16.31c-4.7,0.02-8.64,0.79-11.8,2.31c-3.14,1.5-5.52,3.59-7.1,6.25
	c-1.6,2.66-2.39,5.74-2.39,9.21c0,2.64,0.43,5.09,1.26,7.36c0.81,2.27,2.03,4.24,3.61,5.9c1.87,1.89,4.14,3.29,6.81,4.22
	c2.68,0.91,5.92,1.38,9.73,1.38c2.54,0,4.77-0.2,6.67-0.65c1.91-0.43,3.65-1.12,5.19-2.03c1.56-0.93,3.08-2.15,4.56-3.65v5.6H835.99
	L835.99,680.47z M823.58,658.2c0,2.19-0.2,4.02-0.65,5.52c-0.45,1.5-1.12,2.7-2.03,3.61c-1.1,1.03-2.23,1.8-3.41,2.31
	c-1.18,0.53-2.43,0.85-3.77,1.01c-1.34,0.14-2.8,0.22-4.38,0.2c-3.87-0.02-6.73-0.77-8.58-2.27c-1.85-1.52-2.76-3.67-2.74-6.49
	c0-2.82,0.93-5.01,2.8-6.55c1.87-1.54,4.62-2.31,8.27-2.33h14.48V658.2z"/>
<g>
	<path class="st0" d="M249.5,936.49c-7.96,0-15.52,1.86-22.34,5.17c-6.83-3.31-14.39-5.17-22.34-5.17c-30.38,0-55,26.79-55,59.83
		c0,33.04,24.63,82.01,55,82.01c7.96,0,15.51-3.36,22.34-8.92c6.83,5.55,14.38,8.92,22.34,8.92c30.38,0,55-48.97,55-82.01
		C304.5,963.28,279.87,936.49,249.5,936.49z"/>
	<path class="st1" d="M202.25,954.62c-16.86,3.21-28.19,14.11-32.1,32.44c-0.8,6.67-8.38,6.59-8.04,0
		c3.69-23.76,18.1-36.98,40.14-39.21C206.84,947.3,207.77,953.5,202.25,954.62z"/>
	<path class="st2" d="M222.4,925.64c2.51-6.59,2.34-14.18-1.12-20.96c-3.45-6.78-9.48-11.39-16.28-13.24
		c-2.51,6.59-2.34,14.18,1.12,20.96C209.57,919.18,215.59,923.79,222.4,925.64L222.4,925.64z M265.92,922.9
		c10.7-8.99,16.44-21.68,16.93-34.63c-12.83-1.75-26.33,1.71-37.03,10.7c-10.69,8.98-16.43,21.68-16.92,34.62
		C241.73,935.35,255.23,931.89,265.92,922.9z"/>
	<path class="st3" d="M79.97,863.22h96.16c4.6,0,8.37,3.77,8.37,8.37v45.56c0,4.6-3.77,8.37-8.37,8.37h-1.29l0.04,11.75
		l-17.42-11.75H79.97c-4.6,0-8.37-3.77-8.37-8.37v-45.56C71.6,866.98,75.37,863.22,79.97,863.22z"/>
</g>
<path class="st4" d="M412.4,1043.62V954.2h-21.63l-20.12,39.43l-20.12-39.43h-21.63v89.41h22.01v-42.82l12.7,22.09h14.08l12.7-22.09
	v42.82H412.4L412.4,1043.62z M483,1016.45v-9.18c0-4.47-0.67-8.64-1.99-12.49c-1.34-3.86-3.29-7.27-5.87-10.19
	c-2.58-2.93-5.76-5.22-9.54-6.87c-3.79-1.66-8.13-2.49-13.04-2.51c-4.44,0-8.53,0.78-12.22,2.28c-3.69,1.53-6.87,3.75-9.58,6.71
	c-2.7,2.96-4.8,6.56-6.27,10.86c-1.47,4.28-2.22,9.2-2.24,14.73c0.02,5.81,0.67,10.75,1.91,14.8c1.26,4.07,2.95,7.38,5.11,9.98
	c2.16,2.6,4.61,4.61,7.38,6.04c2.75,1.42,5.66,2.41,8.7,2.98c3.04,0.54,6.08,0.82,9.1,0.8c3.12,0,5.93-0.23,8.45-0.69
	c2.49-0.46,4.76-1.15,6.81-2.05c2.05-0.9,3.98-2.03,5.76-3.35c1.8-1.32,3.54-2.85,5.26-4.59l-12.32-12.32
	c-1.19,1.22-2.41,2.24-3.65,3.08c-1.24,0.84-2.68,1.49-4.32,1.93c-1.63,0.42-3.63,0.65-5.99,0.65c-2.56-0.02-4.74-0.52-6.5-1.51
	c-1.78-0.98-3.14-2.26-4.07-3.86c-0.92-1.59-1.38-3.33-1.38-5.2H483L483,1016.45z M462.63,1002.75h-20.12c0-0.82,0.06-1.7,0.23-2.6
	c0.17-0.9,0.46-1.8,0.9-2.68c0.42-0.98,1.01-1.87,1.78-2.66c0.78-0.8,1.76-1.42,2.94-1.89c1.17-0.48,2.58-0.73,4.21-0.73
	c1.63,0,3.04,0.25,4.21,0.73c1.17,0.46,2.16,1.09,2.94,1.89c0.78,0.8,1.36,1.68,1.78,2.66c0.44,0.88,0.73,1.78,0.9,2.68
	C462.57,1001.05,462.63,1001.93,462.63,1002.75L462.63,1002.75z M524.44,1043.62v-17.35h-6.54c-1.38,0-2.43-0.38-3.12-1.09
	c-0.69-0.71-1.03-1.74-1.03-3.06v-27.67h10.69V978.6h-10.69v-19.37h-20.62v19.37h-6.16v15.85h6.16v29.17c0,2.37,0.38,4.72,1.17,7.04
	c0.8,2.35,2.03,4.48,3.71,6.43c1.7,1.95,3.86,3.52,6.52,4.7c2.66,1.19,5.87,1.78,9.6,1.82H524.44L524.44,1043.62z M585.87,1043.62
	v-43.89c-0.02-8.24-2.58-14.38-7.63-18.44c-5.07-4.07-12.45-6.08-22.18-6.08c-2.85,0-5.41,0.15-7.71,0.44
	c-2.28,0.29-4.38,0.8-6.31,1.49c-1.91,0.69-3.73,1.63-5.47,2.79c-1.72,1.17-3.44,2.62-5.16,4.34l12.83,12.83
	c1.07-1.09,2.1-1.97,3.08-2.62c0.98-0.67,2.1-1.15,3.31-1.47c1.22-0.29,2.68-0.44,4.42-0.44c3.56-0.04,6.16,0.59,7.77,1.91
	c1.63,1.3,2.43,3.48,2.41,6.52v1.76h-13.71c-4.02,0.02-7.48,0.57-10.38,1.64c-2.91,1.07-5.3,2.51-7.17,4.36
	c-1.87,1.82-3.25,3.92-4.13,6.27c-0.9,2.33-1.34,4.78-1.34,7.36c0,3.16,0.5,6.1,1.49,8.82c1.01,2.7,2.47,5.05,4.42,7.02
	c1.91,1.91,4.23,3.37,6.98,4.42c2.75,1.07,5.83,1.59,9.24,1.61c2.37,0,4.42-0.23,6.18-0.67c1.74-0.46,3.33-1.13,4.74-2.05
	c1.42-0.9,2.81-2.05,4.17-3.44v5.53H585.87L585.87,1043.62z M565.24,1018.22c0.02,1.63-0.13,3-0.44,4.11
	c-0.29,1.11-0.82,1.99-1.57,2.68c-0.73,0.71-1.49,1.24-2.22,1.59c-0.75,0.38-1.59,0.63-2.54,0.75c-0.94,0.13-2.1,0.17-3.42,0.17
	c-1.51-0.02-2.77-0.27-3.77-0.8c-1.01-0.52-1.76-1.2-2.26-2.05c-0.5-0.86-0.75-1.78-0.75-2.81c0.02-1.59,0.61-2.89,1.76-3.88
	c1.15-0.98,2.75-1.51,4.78-1.53h10.44V1018.22z"/>
<path class="st5" d="M661.81,998.28c0.02-3.25,0.02-6.48-0.04-9.68c-0.08-3.21-0.36-6.35-0.86-9.41c-0.48-3.06-1.38-5.97-2.66-8.78
	c-1.26-2.79-3.1-5.41-5.49-7.84c-2.85-2.83-6.25-4.95-10.21-6.33c-3.94-1.4-8.26-2.1-12.93-2.1h-31.44v89.54h31.44
	c4.67,0,8.99-0.69,12.93-2.1c3.96-1.38,7.36-3.5,10.21-6.33c2.39-2.43,4.23-5.11,5.49-8.05c1.28-2.91,2.18-5.99,2.66-9.22
	c0.5-3.21,0.78-6.5,0.86-9.83C661.83,1004.82,661.83,1001.53,661.81,998.28L661.81,998.28z M648.23,998.28
	c0.02,4.11-0.04,7.9-0.21,11.38c-0.15,3.46-0.59,6.52-1.26,9.18c-0.69,2.68-1.78,4.86-3.31,6.6c-1.89,2.08-4.09,3.58-6.62,4.57
	c-2.51,0.98-5.39,1.47-8.59,1.47h-16.47v-65.14h16.47c3.21-0.02,6.08,0.48,8.59,1.47c2.54,0.96,4.74,2.49,6.62,4.57
	c1.53,1.72,2.62,3.79,3.31,6.27c0.67,2.47,1.11,5.32,1.26,8.59C648.19,990.48,648.25,994.17,648.23,998.28L648.23,998.28z
	 M721.59,1011.73c0.02-3.56-0.19-6.83-0.61-9.85c-0.44-3-1.19-5.76-2.31-8.28c-1.09-2.52-2.64-4.8-4.63-6.9
	c-1.38-1.45-3-2.72-4.86-3.86c-1.87-1.13-3.98-2.03-6.35-2.68c-2.39-0.65-5.01-0.98-7.9-1.01c-2.89,0.02-5.51,0.36-7.86,1.01
	c-2.35,0.65-4.44,1.55-6.29,2.68c-1.84,1.13-3.46,2.41-4.84,3.86c-1.99,2.1-3.54,4.38-4.63,6.9c-1.11,2.51-1.87,5.28-2.31,8.28
	c-0.42,3.02-0.63,6.29-0.61,9.85c-0.02,3.61,0.19,6.92,0.61,9.94c0.44,3.02,1.19,5.79,2.31,8.3c1.09,2.51,2.64,4.82,4.63,6.92
	c1.38,1.45,3,2.73,4.84,3.86c1.84,1.13,3.94,2.03,6.29,2.68c2.35,0.65,4.97,0.99,7.86,1.01c2.89-0.02,5.51-0.36,7.9-1.01
	c2.37-0.65,4.48-1.55,6.35-2.68c1.87-1.13,3.48-2.41,4.86-3.86c1.99-2.1,3.54-4.4,4.63-6.92c1.11-2.51,1.87-5.28,2.31-8.3
	C721.41,1018.65,721.62,1015.34,721.59,1011.73L721.59,1011.73z M708.77,1011.73c0.02,2.33-0.06,4.57-0.27,6.75
	c-0.21,2.16-0.63,4.17-1.26,5.99c-0.63,1.84-1.59,3.42-2.87,4.74c-1.19,1.19-2.6,2.14-4.19,2.79c-1.59,0.65-3.35,0.98-5.24,0.98
	c-1.89,0-3.6-0.34-5.18-0.98c-1.55-0.65-2.93-1.59-4.13-2.79c-1.28-1.32-2.24-2.89-2.87-4.74c-0.63-1.82-1.05-3.84-1.26-5.99
	c-0.21-2.18-0.29-4.42-0.27-6.75c-0.02-2.33,0.06-4.57,0.27-6.75c0.21-2.16,0.63-4.17,1.26-6.02c0.63-1.82,1.59-3.4,2.87-4.72
	c1.19-1.19,2.58-2.12,4.13-2.73c1.57-0.61,3.29-0.92,5.18-0.92c1.89,0,3.65,0.31,5.24,0.92c1.59,0.61,3,1.53,4.19,2.73
	c1.28,1.32,2.24,2.89,2.87,4.72c0.63,1.84,1.05,3.86,1.26,6.02C708.7,1007.17,708.79,1009.41,708.77,1011.73L708.77,1011.73z
	 M776.1,1035.38l-8.8-8.42c-1.32,1.47-2.6,2.64-3.84,3.52c-1.24,0.88-2.51,1.53-3.86,1.93c-1.34,0.4-2.85,0.59-4.51,0.59
	c-2.47,0-4.69-0.5-6.71-1.47c-2.01-0.96-3.71-2.37-5.11-4.19c-1.36-1.72-2.35-3.84-2.93-6.33c-0.57-2.49-0.86-5.6-0.84-9.26
	c0-2.47,0.13-4.63,0.36-6.52c0.25-1.91,0.65-3.56,1.22-5.03c0.54-1.45,1.28-2.77,2.2-3.92c1.4-1.82,3.1-3.23,5.11-4.19
	c2.01-0.98,4.23-1.47,6.71-1.47c1.66,0,3.16,0.19,4.51,0.59c1.34,0.4,2.62,1.05,3.86,1.93c1.24,0.88,2.51,2.05,3.84,3.52l8.8-8.55
	c-1.99-2.14-4.04-3.86-6.16-5.18c-2.14-1.3-4.4-2.26-6.83-2.87c-2.41-0.59-5.09-0.88-8.01-0.88c-2.89,0-5.7,0.36-8.47,1.09
	c-2.75,0.73-5.32,1.91-7.73,3.5c-2.39,1.57-4.51,3.65-6.35,6.18c-1.82,2.56-3.25,5.64-4.3,9.24c-1.03,3.6-1.55,7.78-1.57,12.55
	c0.02,4.78,0.55,8.97,1.57,12.58c1.05,3.61,2.47,6.71,4.3,9.26c1.84,2.56,3.96,4.63,6.35,6.23c2.41,1.61,4.99,2.79,7.73,3.52
	c2.77,0.75,5.58,1.11,8.47,1.11c2.91,0,5.6-0.29,8.01-0.92c2.43-0.63,4.69-1.59,6.83-2.93
	C772.05,1039.23,774.11,1037.51,776.1,1035.38L776.1,1035.38z M830.47,1015.51v-5.66c0-4.55-0.61-8.7-1.82-12.43
	c-1.19-3.75-2.95-6.98-5.28-9.7c-2.33-2.72-5.16-4.82-8.49-6.31c-3.35-1.47-7.17-2.22-11.44-2.24c-5.49,0.02-10.25,1.3-14.27,3.86
	c-4.05,2.56-7.17,6.27-9.39,11.11c-2.22,4.84-3.33,10.71-3.37,17.61c0.02,6.06,0.78,11.17,2.24,15.34c1.47,4.19,3.5,7.57,6.1,10.1
	c2.62,2.56,5.66,4.4,9.12,5.55c3.46,1.15,7.19,1.72,11.21,1.7c3.69,0,6.94-0.38,9.73-1.13c2.77-0.73,5.28-1.84,7.55-3.31
	c2.26-1.49,4.48-3.31,6.62-5.49l-8.17-7.67c-1.49,1.51-2.96,2.75-4.42,3.71c-1.47,0.96-3.1,1.68-4.86,2.14
	c-1.76,0.46-3.82,0.69-6.18,0.69c-3.48-0.02-6.43-0.75-8.84-2.2c-2.41-1.45-4.23-3.5-5.49-6.16c-1.26-2.66-1.89-5.83-1.89-9.49
	H830.47L830.47,1015.51z M817.77,1006.58H789.1c0.04-1.28,0.1-2.39,0.21-3.33c0.08-0.94,0.25-1.84,0.46-2.68
	c0.23-0.82,0.54-1.72,0.96-2.66c0.67-1.61,1.63-3.02,2.85-4.21c1.22-1.19,2.66-2.14,4.32-2.81c1.68-0.67,3.52-1.03,5.53-1.03
	c2.01,0,3.86,0.36,5.49,1.03c1.66,0.67,3.08,1.61,4.28,2.81c1.19,1.19,2.14,2.6,2.81,4.21c0.42,0.94,0.73,1.84,0.98,2.66
	c0.25,0.84,0.42,1.74,0.54,2.68C817.64,1004.19,817.73,1005.3,817.77,1006.58L817.77,1006.58z M890.13,1043.68v-40.75
	c0.02-2.39-0.19-4.65-0.57-6.79c-0.4-2.14-1.07-4.13-2.01-6c-0.92-1.86-2.2-3.6-3.84-5.2c-1.89-1.84-4.17-3.25-6.81-4.26
	c-2.66-1.01-5.62-1.51-8.91-1.53c-3.23,0-6.31,0.59-9.24,1.78c-2.91,1.19-5.51,3-7.73,5.39v-6.41h-12.58v63.76h12.83v-38.86
	c0.02-3.27,0.65-5.95,1.82-8.05c1.19-2.1,2.79-3.65,4.78-4.65c1.97-1.03,4.19-1.51,6.6-1.51c2.41-0.02,4.59,0.48,6.52,1.47
	c1.93,1.01,3.46,2.54,4.57,4.63c1.13,2.1,1.72,4.8,1.74,8.11v38.86H890.13L890.13,1043.68z M947.02,1035.38l-8.8-8.42
	c-1.32,1.47-2.6,2.64-3.84,3.52c-1.24,0.88-2.51,1.53-3.86,1.93c-1.34,0.4-2.85,0.59-4.51,0.59c-2.47,0-4.69-0.5-6.71-1.47
	c-2.01-0.96-3.71-2.37-5.11-4.19c-1.36-1.72-2.35-3.84-2.93-6.33c-0.57-2.49-0.86-5.6-0.84-9.26c0-2.47,0.13-4.63,0.36-6.52
	c0.25-1.91,0.65-3.56,1.22-5.03c0.54-1.45,1.28-2.77,2.2-3.92c1.4-1.82,3.1-3.23,5.11-4.19c2.01-0.98,4.23-1.47,6.71-1.47
	c1.66,0,3.16,0.19,4.51,0.59c1.34,0.4,2.62,1.05,3.86,1.93c1.24,0.88,2.51,2.05,3.84,3.52l8.8-8.55c-1.99-2.14-4.04-3.86-6.16-5.18
	c-2.14-1.3-4.4-2.26-6.83-2.87c-2.41-0.59-5.09-0.88-8.01-0.88c-2.89,0-5.7,0.36-8.47,1.09c-2.75,0.73-5.32,1.91-7.73,3.5
	c-2.39,1.57-4.51,3.65-6.35,6.18c-1.82,2.56-3.25,5.64-4.3,9.24c-1.03,3.6-1.55,7.78-1.57,12.55c0.02,4.78,0.54,8.97,1.57,12.58
	c1.05,3.61,2.47,6.71,4.3,9.26c1.84,2.56,3.96,4.63,6.35,6.23c2.41,1.61,4.99,2.79,7.73,3.52c2.77,0.75,5.58,1.11,8.47,1.11
	c2.91,0,5.6-0.29,8.01-0.92c2.43-0.63,4.69-1.59,6.83-2.93C942.98,1039.23,945.03,1037.51,947.02,1035.38L947.02,1035.38z
	 M965.68,1043.68v-63.76h-12.83v63.76H965.68L965.68,1043.68z M966.06,967.34v-13.58h-13.58v13.58H966.06L966.06,967.34z
	 M1023.96,1043.68v-42.63c0-7.23-2.2-12.7-6.58-16.37c-4.4-3.67-10.96-5.51-19.7-5.51c-3.5-0.02-6.6,0.25-9.29,0.82
	c-2.7,0.57-5.14,1.51-7.34,2.85c-2.18,1.34-4.28,3.19-6.27,5.51l8.42,7.92c1.15-1.51,2.35-2.7,3.63-3.6
	c1.26-0.92,2.7-1.57,4.36-1.97c1.66-0.4,3.65-0.61,5.97-0.59c3.31,0,5.97,0.44,8.03,1.3c2.08,0.88,3.56,2.2,4.53,3.96
	c0.94,1.78,1.42,4,1.4,6.69v4.53h-16.85c-4.86,0.02-8.93,0.82-12.2,2.39c-3.25,1.55-5.7,3.71-7.33,6.46
	c-1.66,2.75-2.47,5.93-2.47,9.51c0,2.73,0.44,5.26,1.3,7.61c0.84,2.35,2.1,4.38,3.73,6.1c1.93,1.95,4.28,3.4,7.04,4.36
	c2.77,0.94,6.12,1.42,10.06,1.42c2.62,0,4.93-0.21,6.9-0.67c1.97-0.44,3.77-1.15,5.37-2.1c1.61-0.96,3.19-2.22,4.72-3.77v5.79
	H1023.96L1023.96,1043.68z M1011.13,1020.66c0,2.26-0.21,4.15-0.67,5.7c-0.46,1.55-1.15,2.79-2.1,3.73
	c-1.13,1.07-2.31,1.87-3.52,2.39c-1.22,0.55-2.51,0.88-3.9,1.05c-1.38,0.15-2.89,0.23-4.53,0.21c-4-0.02-6.96-0.8-8.87-2.35
	c-1.91-1.57-2.85-3.79-2.83-6.71c0-2.91,0.96-5.18,2.89-6.77c1.93-1.59,4.78-2.39,8.55-2.41h14.96V1020.66z"/>
</svg>
