<?xml version="1.0" encoding="UTF-8" standalone="no"?>
<!-- Created with Inkscape (http://www.inkscape.org/) -->

<svg
   xmlns:dc="http://purl.org/dc/elements/1.1/"
   xmlns:cc="http://creativecommons.org/ns#"
   xmlns:rdf="http://www.w3.org/1999/02/22-rdf-syntax-ns#"
   xmlns:svg="http://www.w3.org/2000/svg"
   xmlns="http://www.w3.org/2000/svg"
   xmlns:sodipodi="http://sodipodi.sourceforge.net/DTD/sodipodi-0.dtd"
   xmlns:inkscape="http://www.inkscape.org/namespaces/inkscape"
   width="100"
   height="100"
   viewBox="0 0 26.458333 26.458333"
   version="1.1"
   id="svg8821"
   inkscape:export-filename="/home/elio/Dropbox/Elio&amp;Pao reload/metadocencia/manzanita.png"
   inkscape:export-xdpi="96"
   inkscape:export-ydpi="96"
   inkscape:version="0.92.3 (2405546, 2018-03-11)"
   sodipodi:docname="manzanita.svg">
  <defs
     id="defs8815" />
  <sodipodi:namedview
     id="base"
     pagecolor="#ffffff"
     bordercolor="#666666"
     borderopacity="1.0"
     inkscape:pageopacity="0.0"
     inkscape:pageshadow="2"
     inkscape:zoom="4"
     inkscape:cx="34.210187"
     inkscape:cy="47.70306"
     inkscape:document-units="mm"
     inkscape:current-layer="layer1"
     showgrid="false"
     fit-margin-top="1"
     fit-margin-left="1"
     fit-margin-right="1"
     fit-margin-bottom="1"
     units="px"
     inkscape:window-width="1366"
     inkscape:window-height="705"
     inkscape:window-x="0"
     inkscape:window-y="30"
     inkscape:window-maximized="1" />
  <metadata
     id="metadata8818">
    <rdf:RDF>
      <cc:Work
         rdf:about="">
        <dc:format>image/svg+xml</dc:format>
        <dc:type
           rdf:resource="http://purl.org/dc/dcmitype/StillImage" />
        <dc:title></dc:title>
      </cc:Work>
    </rdf:RDF>
  </metadata>
  <g
     inkscape:label="Layer 1"
     inkscape:groupmode="layer"
     id="layer1"
     transform="translate(-42.812526,-141.98744)">
    <g
       id="g9391"
       transform="matrix(0.51901644,0,0,0.51901644,20.337688,80.32377)">
      <g
         inkscape:export-ydpi="37"
         inkscape:export-xdpi="37"
         id="g7625-6-3"
         transform="matrix(0.67751629,0,0,0.67751629,-141.64604,-6.727889)">
        <path
           style="fill:#16947e;fill-opacity:1;stroke-width:0.85733241"
           inkscape:connector-curvature="0"
           d="m 335.38714,208.39736 c 3.35046,-2.81462 5.14914,-6.79093 5.30174,-10.84439 -4.02002,-0.5487 -8.24667,0.53583 -11.59713,3.35131 -3.34874,2.81376 -5.14657,6.79007 -5.29917,10.84354 4.01746,0.54955 8.24582,-0.53498 11.59456,-3.35046 z"
           id="path4355-7-4-1" />
        <path
           style="fill:#16947e;fill-opacity:1;stroke-width:0.85733241"
           inkscape:connector-curvature="0"
           d="m 321.75727,209.25469 c 0.78703,-2.06359 0.73216,-4.44012 -0.34979,-6.56459 -1.08024,-2.12447 -2.96809,-3.5665 -5.10027,-4.14606 -0.78618,2.0636 -0.7313,4.44012 0.34979,6.5646 1.0811,2.12361 2.96894,3.5665 5.10027,4.14605 z"
           id="path4357-4-2-9" />
        <path
           style="fill:#c83737;fill-opacity:1;stroke-width:0.85733241"
           inkscape:connector-curvature="0"
           d="m 330.24486,212.65316 c -2.49312,0 -4.85936,0.58127 -6.99754,1.61779 -2.13991,-1.03652 -4.50615,-1.61779 -6.99841,-1.61779 -9.51382,0 -17.22552,8.389 -17.22552,18.73786 0,10.348 7.71256,25.68568 17.22552,25.68568 2.49141,0 4.8585,-1.05366 6.99841,-2.79319 2.13818,1.73953 4.50528,2.79319 6.99754,2.79319 9.51296,0 17.22552,-15.33768 17.22552,-25.68568 0,-10.34886 -7.71256,-18.73786 -17.22552,-18.73786 z m -15.28624,5.03425 c -4.29523,0.96537 -7.93804,4.42298 -9.37493,9.06201 l -2.19648,-0.27777 c 1.67008,-5.81958 6.37341,-10.1071 11.87062,-11.00215 z"
           id="path4359-1-5-4" />
      </g>
      <g
         inkscape:export-ydpi="37"
         inkscape:export-xdpi="37"
         id="g7028-16-7"
         transform="matrix(0.54452501,0,0,0.54452501,-104.15154,9.872631)">
        <g
           style="fill:#f77b20;fill-opacity:1"
           id="g910-1-8"
           transform="matrix(0.35277777,0,0,-0.35277777,274.70691,204.3558)">
          <path
             d="m 0,0 h 115.091 c 4.658,0 8.434,-3.776 8.434,-8.437 V -65.49 c 0,-4.66 -3.776,-8.437 -8.434,-8.437 h -3.226 l -9.149,-11.87 -9.249,11.87 H 0 c -4.66,0 -8.437,3.777 -8.437,8.437 V -8.437 C -8.437,-3.776 -4.66,0 0,0"
             style="fill:#f77b20;fill-opacity:1;fill-rule:nonzero;stroke:none"
             id="path912-37-4"
             inkscape:connector-curvature="0" />
        </g>
      </g>
    </g>
  </g>
</svg>
